<?xml version="1.0" encoding="iso-8859-1"?>
<!-- Uploaded to: SVG Repo, www.svgrepo.com, Generator: SVG Repo Mixer Tools -->
<svg height="800px" width="800px" version="1.1" id="Layer_1" xmlns="http://www.w3.org/2000/svg" xmlns:xlink="http://www.w3.org/1999/xlink" 
 viewBox="0 0 510.933 510.933" xml:space="preserve">
<g transform="translate(1 1)">
<polygon style="fill:#FFE100;" points="297.133,296.6 297.133,296.6 297.133,194.2 356.867,194.2 254.467,6.467 152.067,194.2 
211.8,194.2 211.8,296.6 "/>
<polyline style="fill:#FFFFFF;" points="152.067,194.2 254.467,6.467 117.933,194.2 "/>
<polyline style="fill:#FFA800;" points="391,194.2 254.467,6.467 254.467,6.467 356.867,194.2 "/>
<path style="fill:#FFE100;" d="M280.067,347.8L280.067,347.8c0,9.387-7.68,17.067-17.067,17.067h-17.067
c-9.387,0-17.067-7.68-17.067-17.067l0,0c0-9.387,7.68-17.067,17.067-17.067H263C272.387,330.733,280.067,338.413,280.067,347.8"/>
<path style="fill:#FFA800;" d="M280.067,347.8c0,9.387-7.68,17.067-17.067,17.067h17.067c9.387,0,17.067-7.68,17.067-17.067
s-7.68-17.067-17.067-17.067H263C272.387,330.733,280.067,338.413,280.067,347.8"/>
<path style="fill:#FFFFFF;" d="M228.867,364.867h17.067c-9.387,0-17.067-7.68-17.067-17.067s7.68-17.067,17.067-17.067h-17.067
c-9.387,0-17.067,7.68-17.067,17.067S219.48,364.867,228.867,364.867"/>
<path style="fill:#FFE100;" d="M280.067,416.067L280.067,416.067c0,9.387-7.68,17.067-17.067,17.067h-17.067
c-9.387,0-17.067-7.68-17.067-17.067l0,0c0-9.387,7.68-17.067,17.067-17.067H263C272.387,399,280.067,406.68,280.067,416.067"/>
<path style="fill:#FFA800;" d="M280.067,416.067c0,9.387-7.68,17.067-17.067,17.067h17.067c9.387,0,17.067-7.68,17.067-17.067
S289.453,399,280.067,399H263C272.387,399,280.067,406.68,280.067,416.067"/>
<path style="fill:#FFFFFF;" d="M228.867,433.133h17.067c-9.387,0-17.067-7.68-17.067-17.067S236.547,399,245.933,399h-17.067
c-9.387,0-17.067,7.68-17.067,17.067S219.48,433.133,228.867,433.133"/>
<path style="fill:#FFE100;" d="M280.067,484.333L280.067,484.333c0,9.387-7.68,17.067-17.067,17.067h-17.067
c-9.387,0-17.067-7.68-17.067-17.067l0,0c0-9.387,7.68-17.067,17.067-17.067H263C272.387,467.267,280.067,474.947,280.067,484.333"
/>
<path style="fill:#FFA800;" d="M280.067,484.333c0,9.387-7.68,17.067-17.067,17.067h17.067c9.387,0,17.067-7.68,17.067-17.067
c0-9.387-7.68-17.067-17.067-17.067H263C272.387,467.267,280.067,474.947,280.067,484.333"/>
<path style="fill:#FFFFFF;" d="M228.867,501.4h17.067c-9.387,0-17.067-7.68-17.067-17.067c0-9.387,7.68-17.067,17.067-17.067
h-17.067c-9.387,0-17.067,7.68-17.067,17.067C211.8,493.72,219.48,501.4,228.867,501.4"/>
<path d="M280.067,373.4h-51.2c-14.507,0-25.6-11.093-25.6-25.6s11.093-25.6,25.6-25.6h51.2c14.507,0,25.6,11.093,25.6,25.6
S294.573,373.4,280.067,373.4z M228.867,339.267c-5.12,0-8.533,3.413-8.533,8.533s3.413,8.533,8.533,8.533h51.2
c5.12,0,8.533-3.413,8.533-8.533s-3.413-8.533-8.533-8.533H228.867z"/>
<path d="M280.067,441.667h-51.2c-14.507,0-25.6-11.093-25.6-25.6c0-14.507,11.093-25.6,25.6-25.6h51.2
c14.507,0,25.6,11.093,25.6,25.6C305.667,430.573,294.573,441.667,280.067,441.667z M228.867,407.533
c-5.12,0-8.533,3.413-8.533,8.533c0,5.12,3.413,8.533,8.533,8.533h51.2c5.12,0,8.533-3.413,8.533-8.533
c0-5.12-3.413-8.533-8.533-8.533H228.867z"/>
<path d="M280.067,509.933h-51.2c-14.507,0-25.6-11.093-25.6-25.6c0-14.507,11.093-25.6,25.6-25.6h51.2
c14.507,0,25.6,11.093,25.6,25.6C305.667,498.84,294.573,509.933,280.067,509.933z M228.867,475.8c-5.12,0-8.533,3.413-8.533,8.533
c0,5.12,3.413,8.533,8.533,8.533h51.2c5.12,0,8.533-3.413,8.533-8.533c0-5.12-3.413-8.533-8.533-8.533H228.867z"/>
<path d="M297.133,305.133H211.8c-5.12,0-8.533-3.413-8.533-8.533v-93.867h-85.333c-3.413,0-5.973-1.707-7.68-4.267
s-0.853-5.973,0.853-8.533L247.64,2.2c3.413-4.267,10.24-4.267,13.653,0l49.493,68.267c2.56,3.413,1.707,9.387-1.707,11.947
c-3.413,1.707-9.387,0.853-11.947-2.56l-42.667-58.88L135,185.667h76.8c5.12,0,8.533,3.413,8.533,8.533v93.867H288.6V194.2
c0-5.12,3.413-8.533,8.533-8.533h76.8l-40.96-57.173c-2.56-3.413-1.707-9.387,1.707-11.947c3.413-2.56,9.387-1.707,11.947,1.707
l51.2,69.973c1.707,2.56,2.56,5.973,0.853,8.533c-1.707,4.267-4.267,5.973-7.68,5.973h-85.333V296.6
C305.667,301.72,302.253,305.133,297.133,305.133z"/>
<path d="M313.347,97.773c0,5.12,3.413,8.533,8.533,8.533s8.533-3.413,8.533-8.533S327,89.24,321.88,89.24
S313.347,92.653,313.347,97.773"/>
</g>
</svg>